<?xml version="1.0" encoding="UTF-8"?>
<svg id="Layer_1" data-name="Layer 1" xmlns="http://www.w3.org/2000/svg" viewBox="0 0 472.57 691.83">
  <defs>
    <style>
      .cls-1 {
        fill: #3438a8;
      }

      .cls-2 {
        fill: #f44e26;
      }
    </style>
  </defs>
  <path class="cls-1" d="M222.21.84c45.82-4.83,101.86,11.59,140.29,36.59,53.71,34.85,91.3,89.66,104.48,152.31,7.29,34.84,5.36,70.6,5.36,106.19l.03,117.89.03,89.71c-.02,17.37.64,41.96-1.74,58.51-3.24,22.1-11.28,43.22-23.57,61.87-22.93,34.97-55.79,55.28-96.17,63.69l-.07-278.93-.06-119.64c-.1-20.59.84-55.83-3.18-74.99-3.45-15.72-10.1-30.57-19.52-43.62-17.69-24.95-44.78-41.62-75.02-46.19-28.79-4.28-58.1,2.97-81.58,20.18-27.51,20.1-43.05,48.39-48.18,81.69-.83.14-1.65.28-2.48.43C70.08,235.75,29.31,262.99.22,305.22c-.03-24.71-.91-58.07,1.02-81.93,4.14-52.52,24.98-102.33,59.48-142.14C102.66,32.67,158.54,5.42,222.21.84Z"/>
  <path class="cls-2" d="M129.73,272.87l.6.33c2.31,4.22,1.04,373.39,1.21,418.62-33.65-3.12-60.17-19.05-85-40.68C-2.64,601.53.9,552.26,2.23,488.4c.63-30.34-3.28-68.84,2.82-98.05,4.6-21.97,13.96-42.66,27.41-60.63,23.49-31.22,58.53-51.71,97.26-56.85Z"/>
  <path class="cls-2" d="M174.12,273.07c28.85,1.41,64.89,21.64,85.01,41.97,19.09,19.21,32.58,43.26,39.03,69.57,7.22,29.71,4.73,91.25,4.73,124.08l-.12,178.8c-31.34-1.92-64.67-19.4-86.64-41.45-19.08-19.32-32.32-43.64-38.2-70.15-5.81-25.17-3.86-86.97-3.86-115.39l.05-187.42Z"/>
</svg>