<?xml version="1.0" encoding="UTF-8"?>
<svg id="Layer_1" data-name="Layer 1" xmlns="http://www.w3.org/2000/svg" viewBox="0 280 2320 940">
  <defs>
    <style>
      .cls-1 {
        fill: #5b5c91;
      }

      .cls-2 {
        fill: #ffffff;
      }

      .cls-3 {
        fill: #3438a8;
      }

      .cls-4 {
        fill: #dfdef3;
      }

      .cls-5 {
        fill: #0d0e1a;
      }

      .cls-6 {
        fill: #f44e26;
      }
    </style>
  </defs>
  <path class="cls-3" d="M681.22,422.41c45.82-4.83,101.86,11.59,140.29,36.59,53.71,34.85,91.3,89.66,104.48,152.31,7.29,34.84,5.36,70.6,5.36,106.19l.03,117.89.03,89.71c-.02,17.37.64,41.96-1.74,58.51-3.24,22.1-11.28,43.22-23.57,61.87-22.93,34.97-55.79,55.28-96.17,63.69l-.07-278.93-.06-119.64c-.1-20.59.84-55.83-3.18-74.99-3.45-15.72-10.1-30.57-19.52-43.62-17.69-24.95-44.78-41.62-75.02-46.19-28.79-4.28-58.1,2.97-81.58,20.18-27.51,20.1-43.05,48.39-48.18,81.69-.83.14-1.65.28-2.48.43-50.76,9.2-91.53,36.44-120.61,78.67-.03-24.71-.91-58.07,1.02-81.93,4.14-52.52,24.98-102.33,59.48-142.14,41.93-48.47,97.81-75.72,161.48-80.3Z"/>
  <path class="cls-2" d="M1185.72,368.36c41.32-6.14,93.32,9.65,123.25,38.61,26.33,25.62,41.35,60.69,41.73,97.43.46,77.96-56.19,127.99-132.33,129.31-25.73.45-51.52.06-77.25-.03l-.03,26.82v92.47h-74.66s-.06-169.01-.06-169.01c-.06-27.68-1.81-80.29,3.02-104.86,4.5-22.78,14.28-44.19,28.56-62.51,22.98-29.12,51.32-43.85,87.77-48.23Z"/>
  <path class="cls-5" d="M1199.02,440.2c92.65-9.43,98.55,117.8,18.02,126.46l-75.94.1c-.16-53.01-10.3-113.86,57.92-126.56Z"/>
  <path class="cls-2" d="M1325.6,799.91l77.87-.18-20.88,63.54-62.5,189.21c-3.33,9.96-6.57,20.01-9.8,30.01-12.2,37.81-21.09,80.7-64.32,94.72-16.16,5.15-33.7,3.73-48.82-3.95-28.38-14.72-34.85-45.37-44.04-73.33l-23.05-71.55-73.08-228.53c26.22-.3,53.07.03,79.35.06l57.79,183.38c9.59,30.68,24.45,83.63,35.99,112.43l95.49-295.8Z"/>
  <path class="cls-2" d="M1976.84,371.14l71.14.39c.18,46.18-.58,92.98.15,139.1,1.45,9.29-.1,31.7,2.42,36.2,24.49-96.94,149.81-97.49,172.48-1.8,6.81,28.75,4.26,63.29,4.18,93.18l-.3,114.69-71.71-.12-.11-105.53c.12-43.16,8.44-102.93-52.84-105.36-27.72-1.2-48.42,18.44-52.57,45.25-3.08,19.95-1.72,42.39-1.67,62.75v103.07s-71.1-.03-71.1-.03l-.07-381.79Z"/>
  <path class="cls-4" d="M2048.13,510.62c1.45,9.29-.1,31.7,2.42,36.2-.09.58-.58,6.15-2.08,5.78-.92-2.27-.52-37.74-.34-41.99Z"/>
  <path class="cls-2" d="M1383.32,982.87c3.97-26.71,14.58-50.03,37.21-66.09,61.97-43.95,162.75-25.63,185.06,53.54,8.07,28.65,5.79,59,5.77,88.58l-.07,115.25c-10.43,1.44-50.14.57-62.29.47,0-14.15,1.1-69.7-.96-79.87-4.37,24.78-16.17,59.29-38.72,72.02-100.28,56.6-187.39-73.95-99.05-144.85,28.03-22.49,94.2-15.47,132.09-16.17-1.82-15.16-6.42-31.18-19.32-40.18-28.29-19.72-62.15-9.83-70.78,23.7-21.72-1.08-47.04-4.2-68.94-6.4Z"/>
  <path class="cls-1" d="M1548.04,1094.75c-.01-1.99-.16-3.58.25-5.5l.67-.45c2.21,12.21,1.19,24.62,1.13,36.91l-.03,48.03c11.87-.03,50.99-.87,61.23.41-10.43,1.44-50.14.57-62.29.47,0-14.15,1.1-69.7-.96-79.87Z"/>
  <path class="cls-5" d="M1545.07,1040.77l1.46.65c-14.39,17.67-7.05,38.86-20.27,57.56-14.34,20.3-44.45,25.95-64.92,11.76-9.1-9.19-12.13-20.21-9.34-32.95,7.42-33.87,43.34-21.94,67.83-26.51,11.72-2.19,15.26-3.89,25.24-10.51Z"/>
  <path class="cls-6" d="M588.74,694.43l.6.33c2.31,4.22,1.04,373.39,1.21,418.62-33.65-3.12-60.17-19.05-85-40.68-49.18-49.62-45.64-98.89-44.3-162.75.63-30.34-3.28-68.84,2.82-98.05,4.6-21.97,13.96-42.66,27.41-60.63,23.49-31.22,58.53-51.71,97.26-56.85Z"/>
  <path class="cls-6" d="M633.13,694.64c28.85,1.41,64.89,21.64,85.01,41.97,19.09,19.21,32.58,43.26,39.03,69.57,7.22,29.71,4.73,91.25,4.73,124.08l-.12,178.8c-31.34-1.92-64.67-19.4-86.64-41.45-19.08-19.32-32.32-43.64-38.2-70.15-5.81-25.17-3.86-86.97-3.86-115.39l.05-187.42Z"/>
  <path class="cls-2" d="M1824.93,901.01l69.11.02.02,273.19c-21.39-.01-43.25-.26-64.6.01-1.16-6.47-.48-52.68-.44-61.56-.72-4.6.13-4.48-2.84-7.95-13.3,50.68-50.62,87.47-105.86,72.48-23.33-6.16-43.17-21.51-55-42.55-6.88-12.46-11.38-26.09-13.27-40.2-2.82-19.96-1.86-52.93-1.86-74.22l.15-119.13,70.3.03v102.86c-.08,41.95-6.56,108.31,53.39,107.82,58.06-.47,50.96-74.03,50.89-111.72v-99.09Z"/>
  <path class="cls-1" d="M1828.22,1092.6c0-2.92-.51-3.21.84-5.24,1.4,6.87,1.94,78.25.4,86.87-1.16-6.47-.48-52.68-.44-61.56-.72-4.6.13-4.48-2.84-7.95.34-2.52.77-5.03,1.27-7.52.35-1.73.54-2.82.77-4.6Z"/>
  <path class="cls-4" d="M1828.22,1092.6c.87,7.88.85,12.2.8,20.07-.72-4.6.13-4.48-2.84-7.95.34-2.52.77-5.03,1.27-7.52.35-1.73.54-2.82.77-4.6Z"/>
  <path class="cls-2" d="M1805.64,474.39c61.47-3.19,122.52,31.4,137.91,93.91,1.14,4.65,1.96,9.6,2.82,14.33-22.36,1.6-47.95,4.13-70.24,6.56-.7-2.59-1.5-5.15-2.39-7.68-12.05-33.4-48.42-48.17-81.04-35.69-54.88,20.59-54.48,122.28.86,141.75,37.71,13.27,69.11-6.74,82.36-42.12l25.84-2.21c13.87-.64,30.63-1.84,44.31-3.37-7.35,63.78-48.55,110.02-113.58,117.74-35.7,4.42-71.7-5.47-100.12-27.51-29.33-23.34-48.05-57.47-51.96-94.75-5.8-52.03,13.08-103.32,55.27-135.36,21.7-16.48,43.41-22.82,69.96-25.6Z"/>
  <path class="cls-2" d="M2162.92,815.83c2.26,3.33,1.2,76.86,1.17,87l61.69.06-.07,60.06-62.94.05.04,77.48c-.34,54.28-6.21,81.46,63.06,72.8l.22,63.26c-21.13,5.08-34.27,4.65-55.34,3.3-21.01-2.2-38.22-8.34-53.54-23.33-31.02-30.36-25.93-75.38-25.84-114.6l-.25-78.66-49.45-.23-.18-27.62c13.53-11.66,30.43-29.73,43.35-42.56l78.08-77.02Z"/>
  <path class="cls-2" d="M1602.14,399.87l.64.64c2.26,9.05.49,66.34.45,79.59l60.85.05v60.81s-63.14-.09-63.14-.09c.1,37.95-.7,76.05.15,113.98.9,40.48,35.73,38.87,65.85,36.81l.35,65.12c-18.87,2.87-32.41,2.32-51.34,2.17-22.08-1.2-42.64-7.09-58.63-22.98-31.35-31.15-27.05-76.3-27-116.48v-78.69c-14.48.16-28.96.18-43.43.07l.05-27.79c10.8-9.56,22.88-22.51,33.44-32.71,27.43-26.52,54.1-54.26,81.76-80.5Z"/>
  <path class="cls-2" d="M1947.39,799.91l70.54.02.03,253.25.02,78.87c0,10.05.59,31.74-.31,40.95l-1.62,1.19c-22.85.18-45.7.16-68.54-.08l-.12-374.2Z"/>
  <path class="cls-2" d="M1384.84,485.71l71.17.07.05,267.22c-23.87.08-47.74.04-71.6-.13l.38-267.15Z"/>
  <path class="cls-2" d="M1414.87,356.27c28.51-3.4,54.39,16.93,57.85,45.44,3.45,28.51-16.83,54.43-45.33,57.94-28.58,3.52-54.59-16.83-58.05-45.41-3.47-28.59,16.93-54.56,45.53-57.97Z"/>
</svg>
